<svg width="215" height="45" viewBox="0 0 215 45" fill="none" xmlns="http://www.w3.org/2000/svg">
<path opacity="0.5" d="M40.0652 3.25671L30.2601 37.9917C30.2102 38.1494 30.0108 38.1967 29.8945 38.0863L23.3301 31.8583L28.2492 14.4514C28.2991 14.2937 28.1495 14.1518 27.9833 14.1991L9.63617 18.8662L3.10498 12.6697C2.98865 12.5593 3.03851 12.3701 3.20469 12.3228L39.7993 3.00444C39.9655 2.97291 40.115 3.11481 40.0652 3.25671Z" fill="#00B37E"/>
<path opacity="0.5" d="M23.3297 31.8581L20.8037 40.8453C20.7538 41.003 20.5544 41.0503 20.4381 40.9399L0.0634003 21.6252C-0.0529313 21.5148 -0.00307518 21.3256 0.163113 21.2783L9.63583 18.866L23.3297 31.8581Z" fill="#00B37E"/>
<path d="M28.2484 14.451L23.3292 31.8579L9.63533 18.8658L27.9825 14.1987C28.1487 14.1514 28.2982 14.2933 28.2484 14.451Z" fill="#00B37E"/>
<path d="M60.624 33V12.84H76.864C77.5733 12.84 78.2267 13.0173 78.824 13.372C79.4213 13.7267 79.8973 14.2027 80.252 14.8C80.6067 15.3787 80.784 16.0227 80.784 16.732V29.108C80.784 29.8173 80.6067 30.4707 80.252 31.068C79.8973 31.6467 79.4213 32.1133 78.824 32.468C78.2267 32.8227 77.5733 33 76.864 33H60.624ZM64.628 29.276H76.696C76.7893 29.276 76.8733 29.248 76.948 29.192C77.0227 29.1173 77.06 29.0333 77.06 28.94V16.9C77.06 16.8067 77.0227 16.732 76.948 16.676C76.8733 16.6013 76.7893 16.564 76.696 16.564H64.628C64.5347 16.564 64.4507 16.6013 64.376 16.676C64.32 16.732 64.292 16.8067 64.292 16.9V28.94C64.292 29.0333 64.32 29.1173 64.376 29.192C64.4507 29.248 64.5347 29.276 64.628 29.276ZM91.1436 33V16.564H82.9116V12.84H103.072V16.564H94.8676V33H91.1436ZM113.724 33V12.84H117.784L125.092 21.548L132.372 12.84H136.46V33H132.736V18.216L125.092 27.316L117.42 18.244V33H113.724ZM143.425 33C142.715 33 142.071 32.8227 141.493 32.468C140.914 32.1133 140.447 31.6467 140.093 31.068C139.738 30.4893 139.561 29.8453 139.561 29.136V20.624C139.561 19.9147 139.738 19.2707 140.093 18.692C140.447 18.1133 140.914 17.6467 141.493 17.292C142.071 16.9373 142.715 16.76 143.425 16.76H152.189C152.898 16.76 153.542 16.9373 154.121 17.292C154.718 17.6467 155.185 18.1133 155.521 18.692C155.875 19.2707 156.053 19.9147 156.053 20.624V29.136C156.053 29.8453 155.875 30.4893 155.521 31.068C155.185 31.6467 154.727 32.1133 154.149 32.468C153.57 32.8227 152.917 33 152.189 33H143.425ZM143.565 29.332H152.049C152.142 29.332 152.217 29.304 152.273 29.248C152.347 29.1733 152.385 29.0893 152.385 28.996V20.764C152.385 20.6707 152.347 20.596 152.273 20.54C152.217 20.4653 152.142 20.428 152.049 20.428H143.565C143.471 20.428 143.387 20.4653 143.313 20.54C143.257 20.596 143.229 20.6707 143.229 20.764V28.996C143.229 29.0893 143.257 29.1733 143.313 29.248C143.387 29.304 143.471 29.332 143.565 29.332ZM158.348 33V16.76H170.976C171.685 16.76 172.329 16.9373 172.908 17.292C173.505 17.6467 173.972 18.1133 174.308 18.692C174.663 19.2707 174.84 19.9147 174.84 20.624V33H171.172V20.764C171.172 20.6707 171.135 20.596 171.06 20.54C171.004 20.4653 170.929 20.428 170.836 20.428H162.352C162.259 20.428 162.175 20.4653 162.1 20.54C162.044 20.596 162.016 20.6707 162.016 20.764V33H158.348ZM181.05 33C180.34 33 179.696 32.8227 179.118 32.468C178.539 32.1133 178.072 31.6467 177.718 31.068C177.363 30.4893 177.186 29.8453 177.186 29.136V20.624C177.186 19.9147 177.363 19.2707 177.718 18.692C178.072 18.1133 178.539 17.6467 179.118 17.292C179.696 16.9373 180.34 16.76 181.05 16.76H189.814C190.523 16.76 191.167 16.9373 191.746 17.292C192.343 17.6467 192.81 18.1133 193.146 18.692C193.5 19.2707 193.678 19.9147 193.678 20.624V26.728H180.854V28.996C180.854 29.0893 180.882 29.1733 180.938 29.248C181.012 29.304 181.096 29.332 181.19 29.332H193.678V33H181.05ZM180.854 23.424H190.01V20.764C190.01 20.6707 189.972 20.596 189.898 20.54C189.842 20.4653 189.767 20.428 189.674 20.428H181.19C181.096 20.428 181.012 20.4653 180.938 20.54C180.882 20.596 180.854 20.6707 180.854 20.764V23.424ZM198.845 39.02V35.324H208.617C208.71 35.324 208.785 35.2867 208.841 35.212C208.916 35.156 208.953 35.0813 208.953 34.988V33H199.993C199.302 33 198.658 32.8227 198.061 32.468C197.482 32.1133 197.016 31.6467 196.661 31.068C196.306 30.4893 196.129 29.8453 196.129 29.136V16.816H199.797V28.996C199.797 29.0893 199.825 29.1733 199.881 29.248C199.956 29.304 200.04 29.332 200.133 29.332H208.617C208.71 29.332 208.785 29.304 208.841 29.248C208.916 29.1733 208.953 29.0893 208.953 28.996V16.816H212.621V35.156C212.621 35.8653 212.453 36.5093 212.117 37.088C211.781 37.6853 211.314 38.152 210.717 38.488C210.138 38.8427 209.494 39.02 208.785 39.02H198.845Z" fill="#F0F2F5"/>
</svg>
